<svg width="17" height="16" viewBox="0 0 17 16" fill="none" xmlns="http://www.w3.org/2000/svg">
<mask id="mask0_333_5022" style="mask-type:alpha" maskUnits="userSpaceOnUse" x="0" y="0" width="17" height="16">
<rect x="0.5" width="16" height="16" fill="#D9D9D9"/>
</mask>
<g mask="url(#mask0_333_5022)">
<path d="M4.39967 11.3126C4.96634 10.883 5.59967 10.5442 6.29967 10.2962C6.99967 10.0486 7.73301 9.92477 8.49967 9.92477C9.26634 9.92477 9.99967 10.0486 10.6997 10.2962C11.3997 10.5442 12.033 10.883 12.5997 11.3126C12.9886 10.861 13.2915 10.3488 13.5083 9.77608C13.7248 9.20332 13.833 8.592 13.833 7.94214C13.833 6.4772 13.3137 5.22968 12.275 4.1996C11.2359 3.16995 9.97745 2.65513 8.49967 2.65513C7.0219 2.65513 5.76367 3.16995 4.72501 4.1996C3.6859 5.22968 3.16634 6.4772 3.16634 7.94214C3.16634 8.592 3.27479 9.20332 3.49167 9.77608C3.70812 10.3488 4.01079 10.861 4.39967 11.3126ZM8.49967 8.60302C7.84412 8.60302 7.29123 8.38008 6.84101 7.93421C6.39123 7.4879 6.16634 6.93981 6.16634 6.28995C6.16634 5.64009 6.39123 5.092 6.84101 4.64569C7.29123 4.19982 7.84412 3.97688 8.49967 3.97688C9.15523 3.97688 9.70812 4.19982 10.1583 4.64569C10.6081 5.092 10.833 5.64009 10.833 6.28995C10.833 6.93981 10.6081 7.4879 10.1583 7.93421C9.70812 8.38008 9.15523 8.60302 8.49967 8.60302ZM8.49967 14.5509C7.57745 14.5509 6.71079 14.3773 5.89967 14.0301C5.08856 13.6834 4.38301 13.2126 3.78301 12.6178C3.18301 12.0231 2.70812 11.3236 2.35834 10.5196C2.00812 9.71549 1.83301 8.85636 1.83301 7.94214C1.83301 7.02793 2.00812 6.16879 2.35834 5.36472C2.70812 4.56066 3.18301 3.86123 3.78301 3.26644C4.38301 2.67165 5.08856 2.20066 5.89967 1.85348C6.71079 1.50674 7.57745 1.33337 8.49967 1.33337C9.4219 1.33337 10.2886 1.50674 11.0997 1.85348C11.9108 2.20066 12.6163 2.67165 13.2163 3.26644C13.8163 3.86123 14.2912 4.56066 14.641 5.36472C14.9912 6.16879 15.1663 7.02793 15.1663 7.94214C15.1663 8.85636 14.9912 9.71549 14.641 10.5196C14.2912 11.3236 13.8163 12.0231 13.2163 12.6178C12.6163 13.2126 11.9108 13.6834 11.0997 14.0301C10.2886 14.3773 9.4219 14.5509 8.49967 14.5509ZM8.49967 13.2292C9.08856 13.2292 9.64412 13.1439 10.1663 12.9734C10.6886 12.8025 11.1663 12.5573 11.5997 12.2378C11.1663 11.9184 10.6886 11.6732 10.1663 11.5023C9.64412 11.3318 9.08856 11.2465 8.49967 11.2465C7.91079 11.2465 7.35523 11.3318 6.83301 11.5023C6.31079 11.6732 5.83301 11.9184 5.39967 12.2378C5.83301 12.5573 6.31079 12.8025 6.83301 12.9734C7.35523 13.1439 7.91079 13.2292 8.49967 13.2292ZM8.49967 7.28127C8.78856 7.28127 9.02745 7.18764 9.21634 7.00039C9.40523 6.81314 9.49967 6.57633 9.49967 6.28995C9.49967 6.00357 9.40523 5.76676 9.21634 5.57951C9.02745 5.39226 8.78856 5.29864 8.49967 5.29864C8.21079 5.29864 7.9719 5.39226 7.78301 5.57951C7.59412 5.76676 7.49967 6.00357 7.49967 6.28995C7.49967 6.57633 7.59412 6.81314 7.78301 7.00039C7.9719 7.18764 8.21079 7.28127 8.49967 7.28127Z" fill="#00A8FF"/>
</g>
</svg>
