<svg width="16" height="16" viewBox="0 0 16 16" fill="none" xmlns="http://www.w3.org/2000/svg">
<mask id="mask0_333_5186" style="mask-type:alpha" maskUnits="userSpaceOnUse" x="0" y="0" width="16" height="16">
<rect width="16" height="16" fill="#D9D9D9"/>
</mask>
<g mask="url(#mask0_333_5186)">
<path d="M2.66634 11.3334V12.6667H13.333V11.3334H2.66634ZM2.66634 4.00004H4.13301C4.07745 3.90004 4.04123 3.79449 4.02434 3.68337C4.0079 3.57226 3.99967 3.4556 3.99967 3.33337C3.99967 2.77782 4.19412 2.3056 4.58301 1.91671C4.9719 1.52782 5.44412 1.33337 5.99967 1.33337C6.33301 1.33337 6.64123 1.41937 6.92434 1.59137C7.2079 1.76382 7.45523 1.97782 7.66634 2.23337L7.99967 2.66671L8.33301 2.23337C8.53301 1.96671 8.77745 1.75004 9.06634 1.58337C9.35523 1.41671 9.66634 1.33337 9.99967 1.33337C10.5552 1.33337 11.0275 1.52782 11.4163 1.91671C11.8052 2.3056 11.9997 2.77782 11.9997 3.33337C11.9997 3.4556 11.9912 3.57226 11.9743 3.68337C11.9579 3.79449 11.9219 3.90004 11.8663 4.00004H13.333C13.6997 4.00004 14.0137 4.13071 14.275 4.39204C14.5359 4.65293 14.6663 4.96671 14.6663 5.33337V12.6667C14.6663 13.0334 14.5359 13.3474 14.275 13.6087C14.0137 13.8696 13.6997 14 13.333 14H2.66634C2.29967 14 1.9859 13.8696 1.72501 13.6087C1.46367 13.3474 1.33301 13.0334 1.33301 12.6667V5.33337C1.33301 4.96671 1.46367 4.65293 1.72501 4.39204C1.9859 4.13071 2.29967 4.00004 2.66634 4.00004ZM2.66634 9.33337H13.333V5.33337H9.93301L11.333 7.23337L10.2663 8.00004L7.99967 4.93337L5.73301 8.00004L4.66634 7.23337L6.03301 5.33337H2.66634V9.33337ZM5.99967 4.00004C6.18856 4.00004 6.34701 3.93626 6.47501 3.80871C6.60256 3.68071 6.66634 3.52226 6.66634 3.33337C6.66634 3.14449 6.60256 2.98604 6.47501 2.85804C6.34701 2.73049 6.18856 2.66671 5.99967 2.66671C5.81079 2.66671 5.65256 2.73049 5.52501 2.85804C5.39701 2.98604 5.33301 3.14449 5.33301 3.33337C5.33301 3.52226 5.39701 3.68071 5.52501 3.80871C5.65256 3.93626 5.81079 4.00004 5.99967 4.00004ZM9.99967 4.00004C10.1886 4.00004 10.347 3.93626 10.475 3.80871C10.6026 3.68071 10.6663 3.52226 10.6663 3.33337C10.6663 3.14449 10.6026 2.98604 10.475 2.85804C10.347 2.73049 10.1886 2.66671 9.99967 2.66671C9.81079 2.66671 9.65256 2.73049 9.52501 2.85804C9.39701 2.98604 9.33301 3.14449 9.33301 3.33337C9.33301 3.52226 9.39701 3.68071 9.52501 3.80871C9.65256 3.93626 9.81079 4.00004 9.99967 4.00004Z" fill="#00A8FF"/>
</g>
</svg>
