<svg width="24" height="24" viewBox="0 0 24 24" fill="none" xmlns="http://www.w3.org/2000/svg">
<mask id="mask0_278_5002" style="mask-type:alpha" maskUnits="userSpaceOnUse" x="0" y="0" width="24" height="24">
<rect width="24" height="24" rx="7" fill="#D9D9D9"/>
</mask>
<g mask="url(#mask0_278_5002)">
<path d="M12 19C11.4477 19 11 18.5523 11 18V16C11 14.3431 9.65685 13 8 13H6C5.44772 13 5 12.5523 5 12C5 11.4477 5.44772 11 6 11H8C9.65685 11 11 9.65685 11 8V6C11 5.44772 11.4477 5 12 5C12.5523 5 13 5.44772 13 6V8C13 9.65685 14.3431 11 16 11H18C18.5523 11 19 11.4477 19 12C19 12.5523 18.5523 13 18 13H16C14.3431 13 13 14.3431 13 16V18C13 18.5523 12.5523 19 12 19Z" fill="#00A8FF"/>
</g>
</svg>
