<svg width="139" height="39" viewBox="0 0 139 39" fill="none" xmlns="http://www.w3.org/2000/svg">
<g clip-path="url(#clip0_112_5808)">
<path d="M5.31543 23.5411V25.9446H7.87844V28.5396H10.4365V25.9446V25.6171V23.5411H5.31543Z" fill="#6C20ED"/>
<path d="M3.84203 27.7182V31.4519H13.3774V34.9337H0V17.1469H13.253V20.6286H3.84203V27.7182Z" fill="#6C20ED"/>
<path d="M22.0616 25.3047L24.5948 21.314H28.5861L24.0423 27.9702L28.7852 34.9337H24.6943L21.982 30.6911L19.2697 34.9337H15.2783L19.9963 28.0206L15.4525 21.314H19.5434L22.0516 25.3047H22.0616Z" fill="#6C20ED"/>
<path d="M31.0742 21.314H34.8864V23.269C35.817 21.9993 37.0961 21.057 39.0768 21.057C42.2121 21.057 45.1982 23.5462 45.1982 28.0962V28.1465C45.1982 32.6965 42.2619 35.1857 39.0768 35.1857C37.0463 35.1857 35.7872 34.2434 34.8864 33.1551V39H31.0742V21.314ZM41.391 28.1516V28.1012C41.391 25.8388 39.883 24.3423 38.1014 24.3423C36.3197 24.3423 34.8366 25.8438 34.8366 28.1012V28.1516C34.8366 30.414 36.3197 31.9105 38.1014 31.9105C39.883 31.9105 41.391 30.4341 41.391 28.1516Z" fill="#6C20ED"/>
<path d="M47.3633 28.2019V28.1515C47.3633 24.2616 50.1005 21.062 54.0122 21.062C58.5062 21.062 60.5616 24.5942 60.5616 28.4539C60.5616 28.7612 60.5367 29.114 60.5118 29.4717H51.1506C51.5288 31.2252 52.7332 32.1372 54.4402 32.1372C55.7192 32.1372 56.6499 31.7291 57.7049 30.7415L59.8897 32.6965C58.6356 34.2736 56.829 35.236 54.3954 35.236C50.3543 35.236 47.3683 32.3639 47.3683 28.1969L47.3633 28.2019ZM56.8489 27.0581C56.625 25.3298 55.6197 24.1608 54.0122 24.1608C52.4047 24.1608 51.4044 25.3046 51.1008 27.0581H56.8489Z" fill="#6C20ED"/>
<path d="M63.4033 21.3139H67.2155V24.06C67.9919 22.1806 69.246 20.9612 71.5054 21.062V25.103H71.3064C68.7732 25.103 67.2155 26.655 67.2155 29.905V34.9337H63.4033V21.3139Z" fill="#6C20ED"/>
<path d="M73.9688 16.386H77.985V19.8174H73.9688V16.386ZM74.0683 21.3139H77.8805V34.9337H74.0683V21.3139Z" fill="#6C20ED"/>
<path d="M80.8223 28.2019V28.1515C80.8223 24.2616 83.5595 21.062 87.4712 21.062C91.9652 21.062 94.0205 24.5942 94.0205 28.4539C94.0205 28.7612 93.9957 29.114 93.9708 29.4717H84.6096C84.9878 31.2252 86.1922 32.1372 87.8992 32.1372C89.1782 32.1372 90.1088 31.7291 91.1639 30.7415L93.3487 32.6965C92.0946 34.2736 90.288 35.236 87.8544 35.236C83.8133 35.236 80.8272 32.3639 80.8272 28.1969L80.8223 28.2019ZM90.3079 27.0581C90.084 25.3298 89.0787 24.1608 87.4712 24.1608C85.8637 24.1608 84.8634 25.3046 84.5598 27.0581H90.3079Z" fill="#6C20ED"/>
<path d="M96.8574 21.314H100.67V23.2438C101.546 22.1 102.675 21.057 104.611 21.057C107.498 21.057 109.18 22.9869 109.18 26.1109V34.9287H105.368V27.3303C105.368 25.5012 104.517 24.5589 103.058 24.5589C101.6 24.5589 100.675 25.5012 100.675 27.3303V34.9287H96.8624V21.3089L96.8574 21.314Z" fill="#6C20ED"/>
<path d="M111.842 28.2019V28.1515C111.842 24.2616 114.778 21.062 118.894 21.062C121.427 21.062 123.01 21.9236 124.264 23.3496L121.93 25.8891C121.079 24.9721 120.223 24.3876 118.869 24.3876C116.963 24.3876 115.604 26.0907 115.604 28.0961V28.1465C115.604 30.2275 116.933 31.9054 119.018 31.9054C120.297 31.9054 121.178 31.3461 122.104 30.4593L124.338 32.7469C123.034 34.193 121.527 35.236 118.844 35.236C114.803 35.236 111.842 32.0868 111.842 28.1969V28.2019Z" fill="#6C20ED"/>
<path d="M125.797 28.2019V28.1515C125.797 24.2616 128.534 21.062 132.446 21.062C136.94 21.062 138.995 24.5942 138.995 28.4539C138.995 28.7612 138.97 29.114 138.945 29.4717H129.584C129.962 31.2252 131.167 32.1372 132.874 32.1372C134.153 32.1372 135.083 31.7291 136.139 30.7415L138.323 32.6965C137.069 34.2736 135.263 35.236 132.829 35.236C128.788 35.236 125.802 32.3639 125.802 28.1969L125.797 28.2019ZM135.283 27.0581C135.059 25.3298 134.053 24.1608 132.446 24.1608C130.838 24.1608 129.838 25.3046 129.534 27.0581H135.283Z" fill="#6C20ED"/>
<path d="M6.78784 1.5923H2.36851V3.62796H6.29017V4.88261H2.36851V6.99889H6.84756V8.25354H1.00488V0.337646H6.78784V1.5923Z" fill="#3E3D40"/>
<path d="M9.69468 8.25348H8.33105V2.28255H9.69468V3.21976C9.78924 3.07364 9.89872 2.94263 10.0132 2.81666C10.1277 2.69069 10.262 2.57984 10.4163 2.47906C10.5706 2.37829 10.7348 2.30271 10.919 2.24728C11.1031 2.19185 11.3071 2.16162 11.5361 2.16162C12.2029 2.16162 12.7205 2.36821 13.0838 2.78139C13.4471 3.19457 13.6313 3.75387 13.6313 4.45426V8.25348H12.2676V4.86743C12.2676 4.39883 12.1582 4.04108 11.9392 3.78914C11.7202 3.5372 11.4116 3.41123 11.0135 3.41123C10.6154 3.41123 10.3068 3.54224 10.063 3.79922C9.8191 4.05619 9.69965 4.42402 9.69965 4.88759V8.24844L9.69468 8.25348Z" fill="#3E3D40"/>
<path d="M16.8953 6.38417C16.8953 6.65122 16.96 6.83765 17.0844 6.95859C17.2088 7.07448 17.388 7.13494 17.6219 7.13494C17.9105 7.13494 18.1892 7.06944 18.458 6.93339V8.052C18.2888 8.14773 18.1046 8.22331 17.9105 8.27874C17.7165 8.32913 17.4925 8.35936 17.2387 8.35936C16.9849 8.35936 16.7659 8.32913 16.5569 8.26866C16.3478 8.2082 16.1637 8.11246 16.0094 7.97138C15.8552 7.83533 15.7357 7.65393 15.6561 7.43223C15.5765 7.21052 15.5317 6.93339 15.5317 6.60083V3.44657H14.7852V2.28262H15.5317V0.64502H16.8953V2.28262H18.4829V3.44657H16.8953V6.38417Z" fill="#3E3D40"/>
<path d="M21.1957 8.25351H19.832V2.28258H21.1957V3.62793C21.3798 3.17444 21.6436 2.81165 21.987 2.5446C22.3303 2.27251 22.7633 2.14654 23.2809 2.17173V3.61786H23.2013C22.9027 3.61786 22.6339 3.66824 22.3851 3.76398C22.1412 3.85972 21.9272 4.01088 21.7481 4.20739C21.5689 4.4039 21.4296 4.6508 21.335 4.94809C21.2404 5.24537 21.1907 5.59305 21.1907 5.98103V8.25351H21.1957Z" fill="#3E3D40"/>
<path d="M25.8539 6.8779C26.1575 7.13992 26.5307 7.26588 26.9687 7.26588C27.3021 7.26588 27.5958 7.20542 27.8396 7.08449C28.0835 6.96356 28.3273 6.7872 28.5662 6.55542L29.3575 7.26588C29.0739 7.60348 28.7354 7.87558 28.3473 8.08216C27.9541 8.28371 27.4913 8.38953 26.9438 8.38953C26.5208 8.38953 26.1227 8.31395 25.7544 8.16278C25.3861 8.01162 25.0676 7.79999 24.7939 7.5279C24.5202 7.25581 24.3062 6.92829 24.1519 6.55038C23.9976 6.16744 23.918 5.74418 23.918 5.28061C23.918 4.85232 23.9876 4.44922 24.132 4.07131C24.2713 3.6934 24.4704 3.36588 24.7292 3.08371C24.988 2.80154 25.2915 2.5748 25.6399 2.40852C25.9883 2.24224 26.3765 2.16162 26.7995 2.16162C27.2673 2.16162 27.6804 2.24728 28.0337 2.42364C28.3871 2.59495 28.6807 2.83178 28.9146 3.12402C29.1485 3.41627 29.3277 3.75891 29.4471 4.15193C29.5666 4.54495 29.6263 4.95309 29.6263 5.38643C29.6263 5.44689 29.6263 5.50736 29.6213 5.56782C29.6213 5.62829 29.6113 5.69379 29.6064 5.7593H25.2716C25.3513 6.24806 25.5454 6.62596 25.8539 6.88294V6.8779ZM28.2875 4.84728C28.2676 4.63061 28.2179 4.42402 28.1432 4.23255C28.0686 4.04108 27.969 3.8748 27.8396 3.73371C27.7152 3.59263 27.5609 3.48178 27.3867 3.40116C27.2126 3.32054 27.0135 3.27519 26.7895 3.27519C26.3715 3.27519 26.0281 3.42131 25.7544 3.70852C25.4807 4.00077 25.3164 4.37868 25.2567 4.84728H28.2826H28.2875Z" fill="#3E3D40"/>
<path d="M36.8577 6.59072C36.7034 6.97367 36.4994 7.30119 36.2456 7.56824C35.9868 7.8353 35.6931 8.03685 35.3647 8.17289C35.0312 8.30894 34.6928 8.37445 34.3445 8.37445C33.8617 8.37445 33.4586 8.26863 33.1401 8.057C32.8216 7.84538 32.5578 7.60352 32.3488 7.32134L32.3587 10.0574H30.9951V2.28259H32.3587V3.27522C32.5727 2.95778 32.8415 2.69072 33.16 2.4791C33.4785 2.26243 33.8766 2.15662 34.3544 2.15662C34.7028 2.15662 35.0412 2.22212 35.3697 2.35817C35.6981 2.49421 35.9868 2.69576 36.2456 2.96282C36.5044 3.22987 36.7084 3.55739 36.8627 3.94034C37.017 4.32328 37.0966 4.76669 37.0966 5.26553C37.0966 5.76437 37.0219 6.20274 36.8677 6.59072H36.8577ZM35.5886 4.46941C35.4991 4.23258 35.3796 4.03103 35.2253 3.86476C35.0711 3.69848 34.8919 3.57251 34.6878 3.48181C34.4838 3.39111 34.2648 3.34576 34.0359 3.34576C33.807 3.34576 33.583 3.39111 33.379 3.48181C33.1699 3.57251 32.9858 3.70352 32.8315 3.86979C32.6773 4.04111 32.5528 4.24266 32.4583 4.47445C32.3637 4.70623 32.3189 4.97328 32.3189 5.26553C32.3189 5.55778 32.3637 5.82483 32.4583 6.05662C32.5528 6.2884 32.6773 6.48995 32.8315 6.66127C32.9858 6.83259 33.1699 6.95855 33.379 7.04925C33.588 7.13995 33.807 7.1853 34.0359 7.1853C34.2648 7.1853 34.4838 7.13995 34.6878 7.04925C34.8919 6.95855 35.0711 6.83258 35.2253 6.66631C35.3796 6.50003 35.4991 6.29848 35.5886 6.06165C35.6782 5.82483 35.723 5.55778 35.723 5.26553C35.723 4.97328 35.6782 4.70623 35.5886 4.46941Z" fill="#3E3D40"/>
<path d="M39.8333 8.25351H38.4697V2.28258H39.8333V3.62793C40.0175 3.17444 40.2813 2.81165 40.6246 2.5446C40.968 2.27251 41.401 2.14654 41.9186 2.17173V3.61786H41.839C41.5404 3.61786 41.2716 3.66824 41.0228 3.76398C40.7789 3.85972 40.5649 4.01088 40.3858 4.20739C40.2066 4.4039 40.0673 4.6508 39.9727 4.94809C39.8781 5.24537 39.8284 5.59305 39.8284 5.98103V8.25351H39.8333Z" fill="#3E3D40"/>
<path d="M44.4916 6.8779C44.7952 7.13992 45.1684 7.26588 45.6064 7.26588C45.9398 7.26588 46.2335 7.20542 46.4773 7.08449C46.7212 6.96356 46.965 6.7872 47.2039 6.55542L47.9952 7.26588C47.7116 7.60348 47.3731 7.87558 46.985 8.08216C46.5918 8.28371 46.129 8.38953 45.5815 8.38953C45.1585 8.38953 44.7604 8.31395 44.3921 8.16278C44.0238 8.01162 43.7053 7.79999 43.4316 7.5279C43.1578 7.25581 42.9438 6.92829 42.7896 6.55038C42.6353 6.16744 42.5557 5.74418 42.5557 5.28061C42.5557 4.85232 42.6253 4.44922 42.7697 4.07131C42.909 3.6934 43.1081 3.36588 43.3669 3.08371C43.6257 2.80154 43.9292 2.5748 44.2776 2.40852C44.626 2.24224 45.0142 2.16162 45.4372 2.16162C45.905 2.16162 46.3181 2.24728 46.6714 2.42364C47.0248 2.59495 47.3184 2.83178 47.5523 3.12402C47.7862 3.41627 47.9654 3.75891 48.0848 4.15193C48.2043 4.54495 48.264 4.95309 48.264 5.38643C48.264 5.44689 48.264 5.50736 48.259 5.56782C48.259 5.62829 48.249 5.69379 48.2441 5.7593H43.9093C43.989 6.24806 44.1831 6.62596 44.4916 6.88294V6.8779ZM46.9252 4.84728C46.9053 4.63061 46.8556 4.42402 46.7809 4.23255C46.7063 4.04108 46.6067 3.8748 46.4773 3.73371C46.3529 3.59263 46.1986 3.48178 46.0244 3.40116C45.8503 3.32054 45.6512 3.27519 45.4272 3.27519C45.0092 3.27519 44.6658 3.42131 44.3921 3.70852C44.1184 4.00077 43.9541 4.37868 43.8944 4.84728H46.9203H46.9252Z" fill="#3E3D40"/>
<path d="M50.9916 8.25348H49.6279V2.28255H50.9916V3.21976C51.0861 3.07364 51.1956 2.94263 51.3101 2.81666C51.4245 2.69069 51.5589 2.57984 51.7132 2.47906C51.8675 2.37829 52.0317 2.30271 52.2158 2.24728C52.4 2.19185 52.604 2.16162 52.8329 2.16162C53.4998 2.16162 54.0174 2.36821 54.3807 2.78139C54.744 3.19457 54.9281 3.75387 54.9281 4.45426V8.25348H53.5645V4.86743C53.5645 4.39883 53.455 4.04108 53.2361 3.78914C53.0171 3.5372 52.7085 3.41123 52.3104 3.41123C51.9122 3.41123 51.6037 3.54224 51.3598 3.79922C51.116 4.05619 50.9965 4.42402 50.9965 4.88759V8.24844L50.9916 8.25348Z" fill="#3E3D40"/>
<path d="M58.1576 6.8779C58.4612 7.13992 58.8345 7.26588 59.2724 7.26588C59.6059 7.26588 59.8995 7.20542 60.1433 7.08449C60.3872 6.96356 60.6311 6.7872 60.8699 6.55542L61.6612 7.26588C61.3776 7.60348 61.0392 7.87558 60.651 8.08216C60.2578 8.28371 59.795 8.38953 59.2475 8.38953C58.8245 8.38953 58.4264 8.31395 58.0581 8.16278C57.6898 8.01162 57.3713 7.79999 57.0976 7.5279C56.8239 7.25581 56.6099 6.92829 56.4556 6.55038C56.3013 6.16744 56.2217 5.74418 56.2217 5.28061C56.2217 4.85232 56.2914 4.44922 56.4357 4.07131C56.575 3.6934 56.7741 3.36588 57.0329 3.08371C57.2917 2.80154 57.5953 2.5748 57.9436 2.40852C58.292 2.24224 58.6802 2.16162 59.1032 2.16162C59.571 2.16162 59.9841 2.24728 60.3374 2.42364C60.6908 2.59495 60.9844 2.83178 61.2183 3.12402C61.4522 3.41627 61.6314 3.75891 61.7508 4.15193C61.8703 4.54495 61.93 4.95309 61.93 5.38643C61.93 5.44689 61.93 5.50736 61.925 5.56782C61.925 5.62829 61.9151 5.69379 61.9101 5.7593H57.5754C57.655 6.24806 57.8491 6.62596 58.1576 6.88294V6.8779ZM60.5912 4.84728C60.5713 4.63061 60.5216 4.42402 60.4469 4.23255C60.3723 4.04108 60.2727 3.8748 60.1433 3.73371C60.0189 3.59263 59.8646 3.48178 59.6905 3.40116C59.5163 3.32054 59.3172 3.27519 59.0932 3.27519C58.6752 3.27519 58.3318 3.42131 58.0581 3.70852C57.7844 4.00077 57.6201 4.37868 57.5604 4.84728H60.5863H60.5912Z" fill="#3E3D40"/>
<path d="M67.1601 2.28259H68.5238V8.25352H67.1601V7.31631C66.966 7.60352 66.7272 7.85546 66.4385 8.06205C66.1499 8.27368 65.7766 8.37445 65.3237 8.37445C64.6568 8.37445 64.1393 8.16786 63.776 7.75469C63.4126 7.34151 63.2285 6.78221 63.2285 6.08182V2.28259H64.5921V5.66864C64.5921 6.13724 64.7016 6.495 64.9206 6.74693C65.1396 6.99887 65.4481 7.12484 65.8463 7.12484C66.2444 7.12484 66.553 6.99383 66.7968 6.73686C67.0407 6.47988 67.1601 6.11709 67.1601 5.64848V2.28259Z" fill="#3E3D40"/>
<path d="M71.5853 8.25351H70.2217V2.28258H71.5853V3.62793C71.7694 3.17444 72.0332 2.81165 72.3766 2.5446C72.72 2.27251 73.153 2.14654 73.6705 2.17173V3.61786H73.5909C73.2923 3.61786 73.0236 3.66824 72.7747 3.76398C72.5309 3.85972 72.3169 4.01088 72.1377 4.20739C71.9586 4.4039 71.8192 4.6508 71.7246 4.94809C71.6301 5.24537 71.5803 5.59305 71.5803 5.98103V8.25351H71.5853Z" fill="#3E3D40"/>
<path d="M74.8545 1.37059V0.0655518H76.3177V1.37059H74.8545ZM74.9092 8.25858V2.28261H76.2729V8.25354H74.9092V8.25858Z" fill="#3E3D40"/>
<path d="M81.6324 8.25343V7.51777C81.4334 7.75963 81.1746 7.96118 80.861 8.12746C80.5475 8.29374 80.1693 8.37436 79.7214 8.37436C79.4377 8.37436 79.169 8.33405 78.9151 8.25343C78.6613 8.17281 78.4423 8.05692 78.2482 7.90072C78.0591 7.74452 77.9049 7.55305 77.7904 7.3263C77.6759 7.09452 77.6162 6.8325 77.6162 6.53018V6.51002C77.6162 6.18754 77.6759 5.90537 77.7954 5.66351C77.9148 5.42165 78.079 5.2201 78.293 5.0639C78.507 4.9077 78.7559 4.78677 79.0545 4.70615C79.3481 4.62553 79.6666 4.58522 80.01 4.58522C80.3534 4.58522 80.6719 4.60537 80.9208 4.65072C81.1696 4.69607 81.4085 4.75653 81.6424 4.83212V4.68599C81.6424 4.27281 81.518 3.95537 81.2691 3.73871C81.0203 3.52204 80.662 3.41119 80.1892 3.41119C79.8557 3.41119 79.5571 3.44646 79.2934 3.51196C79.0346 3.57746 78.7708 3.66816 78.5021 3.78405L78.1338 2.6856C78.4623 2.53444 78.7957 2.41351 79.1391 2.32281C79.4825 2.23212 79.8955 2.18677 80.3783 2.18677C81.2542 2.18677 81.9061 2.40847 82.3341 2.84684C82.7621 3.28522 82.9712 3.91002 82.9712 4.70615V8.24336H81.6324V8.25343ZM81.6673 5.71894C81.4981 5.65343 81.294 5.59297 81.0601 5.54762C80.8262 5.50227 80.5774 5.48212 80.3186 5.48212C79.8955 5.48212 79.5621 5.56274 79.3232 5.72902C79.0843 5.89529 78.9649 6.13212 78.9649 6.43948V6.45964C78.9649 6.74684 79.0744 6.96351 79.2934 7.11467C79.5123 7.26584 79.7811 7.34142 80.1046 7.34142C80.3285 7.34142 80.5326 7.31119 80.7267 7.25072C80.9158 7.19026 81.08 7.1046 81.2243 6.99878C81.3637 6.88793 81.4732 6.75692 81.5528 6.60072C81.6324 6.44452 81.6722 6.2732 81.6722 6.08677V5.7139L81.6673 5.71894Z" fill="#3E3D40"/>
<path d="M84.6582 8.25349V0H86.0218V8.25349H84.6582Z" fill="#3E3D40"/>
</g>
<defs>
<clipPath id="clip0_112_5808">
<rect width="139" height="39" fill="white"/>
</clipPath>
</defs>
</svg>
