<svg width="24" height="24" viewBox="0 0 24 24" fill="none" xmlns="http://www.w3.org/2000/svg">
<g clip-path="url(#clip0_278_5754)">
<path d="M23.5 12C23.5 18.3513 18.3513 23.5 12 23.5C5.64873 23.5 0.5 18.3513 0.5 12C0.5 5.64873 5.64873 0.5 12 0.5C18.3513 0.5 23.5 5.64873 23.5 12Z" stroke="#00A8FF"/>
<path d="M12.928 10.4C13.128 10.184 13.288 9.96003 13.488 9.76803C13.781 9.48009 14.1288 9.25385 14.5108 9.10269C14.8928 8.95154 15.3013 8.87855 15.712 8.88803C16.1819 8.88243 16.6503 8.94166 17.104 9.06403C17.5809 9.19474 18.0132 9.453 18.3543 9.81104C18.6954 10.1691 18.9325 10.6133 19.04 11.096C19.2333 11.859 19.3195 12.6453 19.296 13.432C19.296 15.088 19.296 16.744 19.296 18.4C19.296 18.56 19.248 18.6 19.096 18.592H16.536C16.384 18.592 16.352 18.544 16.352 18.4C16.352 16.8 16.352 15.224 16.352 13.672C16.3631 13.2755 16.3173 12.8795 16.216 12.496C16.1483 12.1736 15.9618 11.8885 15.6935 11.6973C15.4252 11.5061 15.0948 11.4228 14.768 11.464C14.5519 11.4543 14.3361 11.4885 14.1336 11.5645C13.9311 11.6406 13.7461 11.7569 13.5898 11.9064C13.4335 12.056 13.3092 12.2357 13.2243 12.4346C13.1394 12.6336 13.0958 12.8477 13.096 13.064C13.0641 13.3107 13.0481 13.5593 13.048 13.808C13.048 15.336 13.048 16.872 13.048 18.408C13.048 18.56 13.008 18.608 12.856 18.608H10.28C10.144 18.608 10.104 18.608 10.104 18.432V9.27203C10.104 9.12003 10.152 9.08003 10.296 9.08803H12.744C12.896 9.08803 12.936 9.12803 12.928 9.27203C12.92 9.64003 12.928 10 12.928 10.4Z" fill="#00A8FF"/>
<path d="M8.2479 13.832C8.2479 15.336 8.2479 16.84 8.2479 18.344C8.2479 18.512 8.2079 18.56 8.0319 18.56C7.1759 18.56 6.3199 18.56 5.4719 18.56C5.3359 18.56 5.2959 18.56 5.2959 18.392V9.25601C5.2959 9.12801 5.2959 9.08001 5.4559 9.08801H8.0559C8.2239 9.08801 8.2479 9.15201 8.2479 9.29601C8.2479 10.808 8.2479 12.32 8.2479 13.832Z" fill="#00A8FF"/>
<path d="M8.48789 6.072C8.49106 6.4116 8.39315 6.74447 8.20662 7.02828C8.02009 7.31209 7.75336 7.534 7.44035 7.6658C7.12735 7.7976 6.78222 7.83333 6.44886 7.76844C6.11549 7.70355 5.80896 7.54097 5.56825 7.30139C5.32754 7.06181 5.16352 6.75604 5.09706 6.42299C5.03061 6.08994 5.06471 5.74464 5.19503 5.43102C5.32535 5.1174 5.54601 4.84963 5.82894 4.66176C6.11186 4.4739 6.44427 4.37442 6.78389 4.37599C7.2338 4.37808 7.6648 4.55718 7.98368 4.87456C8.30256 5.19195 8.48369 5.6221 8.48789 6.072Z" fill="#00A8FF"/>
</g>
<defs>
<clipPath id="clip0_278_5754">
<rect width="24" height="24" fill="white"/>
</clipPath>
</defs>
</svg>
