<svg width="32" height="32" viewBox="0 0 32 32" fill="none" xmlns="http://www.w3.org/2000/svg">
<mask id="mask0_513_7371" style="mask-type:alpha" maskUnits="userSpaceOnUse" x="0" y="0" width="32" height="32">
<rect width="32" height="32" fill="#D9D9D9"/>
</mask>
<g mask="url(#mask0_513_7371)">
<path d="M9.3335 2.66663H22.6668V13.1333C22.6668 13.6444 22.5557 14.1 22.3335 14.5C22.1113 14.9 21.8002 15.2222 21.4002 15.4666L16.6668 18.2666L17.6002 21.3333H22.6668L18.5335 24.2666L20.1335 29.3333L16.0002 26.2L11.8668 29.3333L13.4668 24.2666L9.3335 21.3333H14.4002L15.3335 18.2666L10.6002 15.4666C10.2002 15.2222 9.88905 14.9 9.66683 14.5C9.44461 14.1 9.3335 13.6444 9.3335 13.1333V2.66663ZM12.0002 5.33329V13.1333L14.6668 14.7333V5.33329H12.0002ZM20.0002 5.33329H17.3335V14.7333L20.0002 13.1333V5.33329Z" fill="#00A8FF"/>
</g>
</svg>
