<svg width="69" height="30" viewBox="0 0 69 30" fill="none" xmlns="http://www.w3.org/2000/svg">
<rect width="69" height="30" fill="#D9D9D9" fill-opacity="0.05"/>
<path d="M11.3871 10.7277C11.3871 9.87585 10.7482 9.13045 9.89631 9.02396C9.04442 8.91748 8.24577 9.39666 7.97956 10.2486L7.12767 12.8042L5.53037 9.9291H2.44227C2.38902 10.0356 2.33578 10.1421 2.28254 10.3018L0.312541 16.691C0.259298 16.8507 0.206055 17.0637 0.206055 17.2234C0.206055 18.0753 0.844973 18.8207 1.69686 18.9804C2.54875 19.1402 3.40065 18.6077 3.61362 17.7558L4.41227 15.1469L6.00956 18.0221H9.15091C9.20415 17.9156 9.25739 17.8091 9.25739 17.6494L11.2806 11.2069C11.3339 11.1004 11.3871 10.8875 11.3871 10.7277ZM1.96308 18.2883C1.48389 18.2883 1.05795 17.9688 0.951459 17.4896C0.844973 17.0104 1.11119 16.5312 1.53713 16.3715C1.96308 16.2118 2.49551 16.3183 2.76173 16.7442C3.02794 17.1702 2.9747 17.7026 2.65524 18.0221C2.49551 18.1818 2.2293 18.2883 1.96308 18.2883ZM5.95632 16.7442L4.67848 14.4548L5.6901 11.2602L6.96794 13.5496L5.95632 16.7442ZM9.6301 11.7394C9.15091 11.7394 8.72496 11.4199 8.61848 10.9407C8.51199 10.4615 8.7782 9.98234 9.20415 9.82261C9.6301 9.66288 10.1625 9.76937 10.4287 10.1953C10.7482 10.568 10.695 11.1004 10.3755 11.4199C10.1625 11.6329 9.89631 11.7394 9.6301 11.7394Z" fill="#5850EB"/>
<path d="M17.351 11.7394C16.712 11.7394 15.9666 12.0588 15.6472 12.5913V11.8991H13.8369V18.0753H15.7004V14.5613C15.7004 14.2951 15.7537 14.0288 15.9666 13.8159C16.1796 13.5496 16.4458 13.4432 16.712 13.4432C17.4042 13.4432 17.7237 13.9223 17.7237 14.508V18.0753H19.5872V14.1886C19.5872 12.8575 18.9483 11.7394 17.351 11.7394Z" fill="#5850EB"/>
<path d="M35.0278 15.5729L33.8032 11.8991H31.8332L30.6086 15.5729L29.597 11.8991H27.627L29.5437 18.0753H31.4605L32.7915 14.0821L34.1226 18.0753H35.9861L37.9029 11.8991H36.0394L35.0278 15.5729Z" fill="#5850EB"/>
<path d="M42.4819 11.7394C41.5767 11.7394 40.9378 12.1121 40.6716 12.538V11.8991H38.8613V20.418H40.7248V17.5961C41.0443 17.9688 41.63 18.235 42.3754 18.235C44.0792 18.235 45.3038 16.904 45.3038 14.9872C45.3038 13.0705 44.2921 11.7394 42.4819 11.7394ZM42.1092 16.5313C41.3638 16.5313 40.7248 15.9988 40.7248 14.9872C40.7248 13.9756 41.3638 13.4432 42.1092 13.4432C42.8546 13.4432 43.4935 13.9224 43.4935 14.9872C43.4935 16.0521 42.8546 16.5313 42.1092 16.5313Z" fill="#5850EB"/>
<path d="M56.8566 11.7394C56.3242 11.7394 55.8982 12.0588 55.7385 12.538V11.8991H53.875V18.0753H55.7385V13.2834C55.9515 13.8159 56.4839 14.1353 57.0163 14.0288C57.5488 13.9223 57.9747 13.4964 58.028 12.9107C58.028 12.5913 57.9215 12.2718 57.7085 12.0588C57.4955 11.8459 57.1761 11.7394 56.8566 11.7394Z" fill="#5850EB"/>
<path d="M61.8083 10.0888H60.1045V10.8875C60.1577 11.1537 60.0512 11.4199 59.8915 11.6329C59.7318 11.8458 59.4656 11.9523 59.1993 11.8991H58.8799V13.5496H59.998V16.2118C59.998 17.4364 60.7966 18.1818 62.0745 18.1818C62.3939 18.1818 62.7666 18.1285 63.0329 18.022V16.4247C62.8731 16.478 62.7134 16.478 62.5537 16.478C62.1277 16.478 61.8615 16.3715 61.8615 15.8391V13.5496H63.0329V11.8991H61.8615L61.8083 10.0888Z" fill="#5850EB"/>
<path d="M67.1863 14.2418L66.3877 14.0821C66.1215 14.0288 65.9085 13.8691 65.9085 13.6029C65.9085 13.2834 66.2279 13.0705 66.5474 13.0705C66.7604 13.0705 66.9733 13.1237 67.1331 13.2834C67.2928 13.4432 67.3993 13.6561 67.3993 13.8691L68.9433 13.5496C68.8901 12.8042 68.2512 11.7394 66.4942 11.7394C65.1098 11.7394 64.0982 12.6445 64.0982 13.7626C64.0982 14.6145 64.6306 15.3599 65.9085 15.6794L66.6006 15.8391C67.0798 15.9456 67.1863 16.1586 67.1863 16.3715C67.1863 16.6378 66.9733 16.904 66.4942 16.904C66.2812 16.904 66.015 16.8507 65.8552 16.691C65.6955 16.5313 65.589 16.3183 65.5358 16.0521L63.9385 16.3715C63.9917 17.0637 64.5774 18.2883 66.5474 18.2883C68.1979 18.2883 68.9966 17.2767 68.9966 16.2118C69.0498 15.2534 68.4641 14.508 67.1863 14.2418Z" fill="#5850EB"/>
<path d="M24.0065 11.7393C23.1546 11.7393 22.3027 12.0588 21.6638 12.6445C21.0249 13.2301 20.7054 14.1353 20.7587 14.9872C20.7587 16.1585 21.3443 17.2766 22.3559 17.8623C23.3676 18.448 24.6454 18.448 25.657 17.8623C26.6686 17.2766 27.3076 16.1585 27.2543 14.9872C27.2543 14.1353 26.9349 13.2834 26.3492 12.6445C25.7635 12.0056 24.9116 11.6861 24.0065 11.7393ZM24.0065 16.5312C23.3143 16.5312 22.6222 15.9988 22.6222 14.9872C22.6222 13.9755 23.3143 13.4431 24.0065 13.4431C24.6986 13.4431 25.3908 13.9223 25.3908 14.9872C25.3908 16.052 24.7519 16.5312 24.0065 16.5312Z" fill="#5850EB"/>
<path d="M49.403 11.7393C48.5511 11.7393 47.6992 12.0588 47.0603 12.6445C46.4214 13.2834 46.1019 14.082 46.1551 14.9872C46.1551 16.1585 46.7408 17.2766 47.7524 17.8623C48.7641 18.448 50.0419 18.448 51.0535 17.8623C52.0651 17.2766 52.704 16.1585 52.6508 14.9872C52.6508 14.1353 52.3313 13.2834 51.7457 12.6445C51.1068 12.0056 50.2549 11.6861 49.403 11.7393ZM49.403 16.5312C48.7108 16.5312 48.0186 15.9988 48.0186 14.9872C48.0186 13.9755 48.7108 13.4431 49.403 13.4431C50.0951 13.4431 50.7873 13.9223 50.7873 14.9872C50.7873 16.052 50.0951 16.5312 49.403 16.5312Z" fill="#5850EB"/>
</svg>
