<svg width="32" height="32" viewBox="0 0 32 32" fill="none" xmlns="http://www.w3.org/2000/svg">
<mask id="mask0_278_4996" style="mask-type:alpha" maskUnits="userSpaceOnUse" x="0" y="0" width="32" height="32">
<rect width="32" height="32" rx="7" fill="#D9D9D9"/>
</mask>
<g mask="url(#mask0_278_4996)">
<path d="M13.6667 27.5354C13.6667 28.2486 13.0885 28.8267 12.3753 28.8267H5.66667C4.93333 28.8267 4.30533 28.5741 3.78267 28.0687C3.26089 27.5625 3 26.9543 3 26.2441V8.16535C3 7.45511 3.26089 6.84689 3.78267 6.34069C4.30533 5.83535 4.93333 5.58267 5.66667 5.58267H8.8428C10.2681 5.58267 11.4889 4.52848 12.6667 3.72573C13.3778 3.24191 14.1556 3 15 3C15.8889 3 16.6836 3.24191 17.384 3.72573C18.5498 4.53346 19.7604 5.58267 21.1787 5.58267H24.3333C25.0667 5.58267 25.6947 5.83535 26.2173 6.34069C26.7391 6.84689 27 7.45511 27 8.16535V13.2887C27 14.0251 26.403 14.622 25.6667 14.622C24.9303 14.622 24.3333 14.0251 24.3333 13.2887V9.49868C24.3333 8.7623 23.7364 8.16535 23 8.16535C22.2636 8.16535 21.6667 8.7623 21.6667 9.49868V10.1024C21.6667 11.1721 20.7994 12.0394 19.7297 12.0394H10.2703C9.20056 12.0394 8.33333 11.1721 8.33333 10.1024V9.49868C8.33333 8.7623 7.73638 8.16535 7 8.16535C6.26362 8.16535 5.66667 8.7623 5.66667 9.49868V22.2441C5.66667 24.4532 7.45753 26.2441 9.66667 26.2441H12.3753C13.0885 26.2441 13.6667 26.8222 13.6667 27.5354ZM22.4093 24.7823C20.8806 26.2628 18.4527 26.2628 16.924 24.7823L14.9632 22.8832C14.4363 22.3729 14.4363 21.5278 14.9632 21.0175C15.4668 20.5298 16.2666 20.5298 16.7701 21.0175L17.7667 21.9827C18.8257 23.0083 20.5076 23.0083 21.5667 21.9827L26.2965 17.4018C26.8001 16.914 27.5999 16.914 28.1035 17.4018C28.6304 17.9121 28.6304 18.7572 28.1035 19.2675L22.4093 24.7823ZM15 8.16535C15.3778 8.16535 15.6947 8.04138 15.9507 7.79344C16.2058 7.54637 16.3333 7.23989 16.3333 6.87401C16.3333 6.50813 16.2058 6.20122 15.9507 5.95329C15.6947 5.70621 15.3778 5.58267 15 5.58267C14.6222 5.58267 14.3058 5.70621 14.0507 5.95329C13.7947 6.20122 13.6667 6.50813 13.6667 6.87401C13.6667 7.23989 13.7947 7.54637 14.0507 7.79344C14.3058 8.04138 14.6222 8.16535 15 8.16535Z" fill="#00A8FF"/>
</g>
</svg>
