<svg width="32" height="32" viewBox="0 0 32 32" fill="none" xmlns="http://www.w3.org/2000/svg">
<mask id="mask0_513_7437" style="mask-type:alpha" maskUnits="userSpaceOnUse" x="0" y="0" width="32" height="32">
<rect width="32" height="32" fill="#D9D9D9"/>
</mask>
<g mask="url(#mask0_513_7437)">
<path d="M14.7998 25.3333H17.1332V23.6666C18.2443 23.4666 19.1998 23.0333 19.9998 22.3666C20.7998 21.7 21.1998 20.7111 21.1998 19.4C21.1998 18.4666 20.9332 17.6111 20.3998 16.8333C19.8665 16.0555 18.7998 15.3777 17.1998 14.8C15.8665 14.3555 14.9443 13.9666 14.4332 13.6333C13.9221 13.3 13.6665 12.8444 13.6665 12.2666C13.6665 11.6888 13.8723 11.2333 14.2838 10.9C14.6945 10.5666 15.2887 10.4 16.0665 10.4C16.7776 10.4 17.3332 10.5724 17.7332 10.9173C18.1332 11.2613 18.4221 11.6888 18.5998 12.2L20.7332 11.3333C20.4887 10.5555 20.0389 9.87774 19.3838 9.29996C18.7278 8.72218 17.9998 8.39996 17.1998 8.33329V6.66663H14.8665V8.33329C13.7554 8.57774 12.8887 9.06663 12.2665 9.79996C11.6443 10.5333 11.3332 11.3555 11.3332 12.2666C11.3332 13.3111 11.6389 14.1555 12.2505 14.8C12.8612 15.4444 13.8221 16 15.1332 16.4666C16.5332 16.9777 17.5056 17.4333 18.0505 17.8333C18.5945 18.2333 18.8665 18.7555 18.8665 19.4C18.8665 20.1333 18.6052 20.672 18.0825 21.016C17.5607 21.3608 16.9332 21.5333 16.1998 21.5333C15.4665 21.5333 14.8167 21.3053 14.2505 20.8493C13.6834 20.3942 13.2665 19.7111 12.9998 18.8L10.7998 19.6666C11.1109 20.7333 11.5945 21.5946 12.2505 22.2506C12.9056 22.9057 13.7554 23.3555 14.7998 23.6V25.3333ZM15.9998 29.3333C14.1554 29.3333 12.4221 28.9831 10.7998 28.2826C9.17762 27.5831 7.7665 26.6333 6.5665 25.4333C5.3665 24.2333 4.41673 22.8222 3.71717 21.2C3.01673 19.5777 2.6665 17.8444 2.6665 16C2.6665 14.1555 3.01673 12.4222 3.71717 10.8C4.41673 9.17774 5.3665 7.76663 6.5665 6.56663C7.7665 5.36663 9.17762 4.4164 10.7998 3.71596C12.4221 3.0164 14.1554 2.66663 15.9998 2.66663C17.8443 2.66663 19.5776 3.0164 21.1998 3.71596C22.8221 4.4164 24.2332 5.36663 25.4332 6.56663C26.6332 7.76663 27.5829 9.17774 28.2825 10.8C28.9829 12.4222 29.3332 14.1555 29.3332 16C29.3332 17.8444 28.9829 19.5777 28.2825 21.2C27.5829 22.8222 26.6332 24.2333 25.4332 25.4333C24.2332 26.6333 22.8221 27.5831 21.1998 28.2826C19.5776 28.9831 17.8443 29.3333 15.9998 29.3333ZM15.9998 26.6666C18.9776 26.6666 21.4998 25.6333 23.5665 23.5666C25.6332 21.5 26.6665 18.9777 26.6665 16C26.6665 13.0222 25.6332 10.5 23.5665 8.43329C21.4998 6.36663 18.9776 5.33329 15.9998 5.33329C13.0221 5.33329 10.4998 6.36663 8.43317 8.43329C6.3665 10.5 5.33317 13.0222 5.33317 16C5.33317 18.9777 6.3665 21.5 8.43317 23.5666C10.4998 25.6333 13.0221 26.6666 15.9998 26.6666Z" fill="#00A8FF"/>
</g>
</svg>
