<svg width="11" height="14" viewBox="0 0 11 14" fill="none" xmlns="http://www.w3.org/2000/svg">
<path d="M5.49967 0.333374C2.91967 0.333374 0.833008 2.42004 0.833008 5.00004C0.833008 6.16004 1.16634 7.24671 1.77301 8.22671C2.40634 9.25337 3.23967 10.1334 3.87967 11.16C4.19301 11.66 4.41967 12.1267 4.65967 12.6667C4.83301 13.0334 4.97301 13.6667 5.49967 13.6667C6.02634 13.6667 6.16634 13.0334 6.33301 12.6667C6.57967 12.1267 6.79967 11.66 7.11301 11.16C7.75301 10.14 8.58634 9.26004 9.21968 8.22671C9.83301 7.24671 10.1663 6.16004 10.1663 5.00004C10.1663 2.42004 8.07967 0.333374 5.49967 0.333374ZM5.49967 6.83337C4.57967 6.83337 3.83301 6.08671 3.83301 5.16671C3.83301 4.24671 4.57967 3.50004 5.49967 3.50004C6.41967 3.50004 7.16634 4.24671 7.16634 5.16671C7.16634 6.08671 6.41967 6.83337 5.49967 6.83337Z" fill="#00A8FF"/>
</svg>
