<svg width="32" height="32" viewBox="0 0 32 32" fill="none" xmlns="http://www.w3.org/2000/svg">
<mask id="mask0_278_4923" style="mask-type:alpha" maskUnits="userSpaceOnUse" x="0" y="0" width="32" height="32">
<rect width="32" height="32" rx="7" fill="#D9D9D9"/>
</mask>
<g mask="url(#mask0_278_4923)">
<path d="M13.0119 28.4545C12.3354 28.6417 11.6667 28.1328 11.6667 27.4309C11.6667 27.0909 11.8295 26.7715 12.1045 26.5717L13 25.9212C13.8376 25.3128 14.3333 24.3401 14.3333 23.3048V22.9795C14.3333 20.4082 11.8733 18.5511 9.40042 19.2555L4.7264 20.5869C3.86094 20.8335 3 20.1835 3 19.2836C3 18.7967 3.26124 18.3472 3.68433 18.1062L10.7984 14.0532C12.9839 12.8082 14.3333 10.4863 14.3333 7.97102V4.93701C14.3333 4.39895 14.528 3.94181 14.9173 3.56561C15.3058 3.18854 15.7778 3 16.3333 3C16.8889 3 17.3609 3.18854 17.7493 3.56561C18.1387 3.94181 18.3333 4.39895 18.3333 4.93701V7.97102C18.3333 10.4863 19.6828 12.8082 21.8683 14.0532L28.9823 18.1062C29.4054 18.3472 29.6667 18.7967 29.6667 19.2836C29.6667 20.1835 28.8057 20.8335 27.9403 20.5869L23.2662 19.2555C20.7933 18.5511 18.3333 20.4082 18.3333 22.9795V23.3048C18.3333 24.3401 18.829 25.3128 19.6667 25.9212L20.5621 26.5717C20.8372 26.7715 21 27.0909 21 27.4309C21 28.1328 20.3312 28.6417 19.6547 28.4545L17.145 27.76C16.6139 27.613 16.0528 27.613 15.5217 27.76L13.0119 28.4545Z" fill="#33A4FE"/>
</g>
</svg>
