<svg width="14" height="14" viewBox="0 0 14 14" fill="none" xmlns="http://www.w3.org/2000/svg">
<path d="M13.6663 2.81332L10.5997 0.23999L9.73968 1.25999L12.8063 3.83332L13.6663 2.81332ZM4.25301 1.25999L3.39967 0.23999L0.333008 2.80666L1.19301 3.82666L4.25301 1.25999ZM7.33301 4.33332H6.33301V8.33332L9.49967 10.2333L9.99967 9.41332L7.33301 7.83332V4.33332ZM6.99967 1.66666C3.68634 1.66666 0.999674 4.35332 0.999674 7.66666C0.999674 10.98 3.67967 13.6667 6.99967 13.6667C10.313 13.6667 12.9997 10.98 12.9997 7.66666C12.9997 4.35332 10.313 1.66666 6.99967 1.66666ZM6.99967 12.3333C4.41967 12.3333 2.33301 10.2467 2.33301 7.66666C2.33301 5.08666 4.41967 2.99999 6.99967 2.99999C9.57967 2.99999 11.6663 5.08666 11.6663 7.66666C11.6663 10.2467 9.57967 12.3333 6.99967 12.3333Z" fill="#00A8FF"/>
</svg>
