<svg width="121" height="36" viewBox="0 0 121 36" fill="none" xmlns="http://www.w3.org/2000/svg">
<g clip-path="url(#clip0_112_5776)">
<path d="M6.78782 1.5546H2.36541V3.53581H6.28098V4.75689H2.36541V6.81656H6.84248V8.03764H1.00391V0.328613H6.78782V1.5546Z" fill="#3E3D40"/>
<path d="M9.68963 8.04256H8.32812V2.22646H9.68963V3.1386C9.78404 2.99638 9.89336 2.86397 10.0076 2.74628C10.1219 2.62368 10.2561 2.51579 10.4101 2.41771C10.5642 2.31963 10.7281 2.24608 10.912 2.19213C11.0959 2.13819 11.2996 2.10876 11.5282 2.10876C12.194 2.10876 12.7108 2.30983 13.0735 2.71686C13.4363 3.11898 13.6201 3.66332 13.6201 4.34497V8.04746H12.2586V4.752C12.2586 4.29593 12.1493 3.94775 11.9306 3.70255C11.712 3.45735 11.4039 3.33476 11.0064 3.33476C10.6089 3.33476 10.3008 3.46226 10.0573 3.71236C9.81385 3.96737 9.68963 4.32045 9.68963 4.77162V8.04746V8.04256Z" fill="#3E3D40"/>
<path d="M16.8902 6.22311C16.8902 6.48302 16.9548 6.66937 17.0791 6.78216C17.2033 6.89495 17.3822 6.9538 17.6157 6.9538C17.9039 6.9538 18.1871 6.89005 18.4505 6.75764V7.84632C18.2815 7.9395 18.0977 8.01306 17.9039 8.067C17.7101 8.11604 17.4865 8.14546 17.2331 8.14546C16.9797 8.14546 16.761 8.11604 16.5474 8.05719C16.3387 7.99834 16.1548 7.90026 16.0008 7.76786C15.8467 7.63545 15.7275 7.45891 15.648 7.24313C15.5635 7.02736 15.5238 6.75764 15.5238 6.43398V3.35919H14.7734V2.22638H15.5238V0.627686H16.8853V2.22638H18.4704V3.35919H16.8853V6.22311H16.8902Z" fill="#3E3D40"/>
<path d="M21.1877 8.04256H19.8262V2.22645H21.1877V3.53581C21.3715 3.09446 21.6399 2.74137 21.9777 2.47656C22.3206 2.21174 22.7529 2.08914 23.2747 2.11366V3.52601H23.1951C22.897 3.52601 22.6237 3.57504 22.3802 3.66822C22.1368 3.7614 21.9231 3.90851 21.7442 4.09977C21.5653 4.29102 21.4262 4.53132 21.3318 4.82065C21.2374 5.10999 21.1877 5.44836 21.1877 5.83087V8.04746V8.04256Z" fill="#3E3D40"/>
<path d="M25.8439 6.70378C26.147 6.95878 26.5197 7.08629 26.9619 7.08629C27.2948 7.08629 27.588 7.02744 27.8315 6.90975C28.075 6.79205 28.3185 6.62041 28.557 6.38993L29.352 7.08629C29.0688 7.41485 28.7309 7.67967 28.3433 7.88073C27.9557 8.08179 27.4837 8.17987 26.942 8.17987C26.5197 8.17987 26.1222 8.10631 25.7545 7.95919C25.3868 7.81207 25.0638 7.60611 24.7954 7.34129C24.5221 7.07648 24.3085 6.75772 24.1544 6.38993C24.0004 6.01722 23.9209 5.60529 23.9209 5.14922C23.9209 4.73239 23.9905 4.34007 24.1346 3.97227C24.2737 3.60447 24.4774 3.28572 24.7308 3.00619C24.9892 2.73157 25.2923 2.51089 25.6402 2.34906C25.988 2.18723 26.3756 2.10876 26.8029 2.10876C27.27 2.10876 27.6824 2.19213 28.0352 2.36377C28.388 2.53051 28.6812 2.76099 28.9147 3.04542C29.1483 3.32985 29.3272 3.66823 29.4464 4.04583C29.5657 4.42834 29.6253 4.83046 29.6253 5.2473C29.6253 5.30615 29.6253 5.365 29.6203 5.42384C29.6203 5.48269 29.6104 5.54644 29.6054 5.61019H25.2725C25.352 6.08588 25.5458 6.45368 25.8538 6.70868L25.8439 6.70378ZM28.2787 4.72748C28.2588 4.51661 28.2091 4.31555 28.1346 4.1292C28.0601 3.94285 27.9607 3.78102 27.8315 3.64371C27.7073 3.50639 27.5532 3.39851 27.3793 3.32004C27.2054 3.24158 27.0066 3.19744 26.783 3.19744C26.3656 3.19744 26.0228 3.33966 25.7495 3.61919C25.4762 3.90362 25.3122 4.27141 25.2526 4.72748H28.2787Z" fill="#3E3D40"/>
<path d="M36.8401 6.42425C36.686 6.79695 36.4823 7.11571 36.2239 7.37562C35.9655 7.63553 35.6723 7.83169 35.3444 7.9641C35.0115 8.0965 34.6736 8.16026 34.3208 8.16026C33.8388 8.16026 33.4363 8.05727 33.1133 7.85131C32.7953 7.64534 32.527 7.40505 32.3232 7.13533L32.3332 9.80308H30.9717V2.22646H32.3332V3.19744C32.5469 2.88849 32.8152 2.62858 33.1332 2.42262C33.4512 2.21175 33.8487 2.10876 34.3258 2.10876C34.6736 2.10876 35.0115 2.17252 35.3394 2.30492C35.6674 2.43733 35.9556 2.63349 36.214 2.8934C36.4724 3.15331 36.6761 3.47207 36.8301 3.84477C36.9842 4.21747 37.0637 4.64902 37.0637 5.13451C37.0637 5.62 36.9891 6.04665 36.8351 6.42425H36.8401ZM35.573 4.35968C35.4835 4.1292 35.3643 3.93304 35.2102 3.77121C35.0562 3.60938 34.8773 3.48678 34.6736 3.39851C34.4699 3.31024 34.2512 3.2661 34.0226 3.2661C33.7941 3.2661 33.5705 3.31024 33.3618 3.39851C33.1531 3.48678 32.9692 3.61428 32.8152 3.78102C32.6611 3.94775 32.5319 4.14391 32.4425 4.36949C32.3481 4.59507 32.3034 4.85498 32.3034 5.13941C32.3034 5.42384 32.3481 5.68375 32.4425 5.90934C32.5369 6.13492 32.6611 6.33108 32.8152 6.49781C32.9692 6.66455 33.1531 6.79205 33.3618 6.88032C33.5705 6.96859 33.7891 7.01273 34.0226 7.01273C34.2562 7.01273 34.4699 6.96859 34.6736 6.88032C34.8773 6.79205 35.0562 6.66945 35.2102 6.50762C35.3643 6.34579 35.4835 6.14963 35.573 5.91914C35.6624 5.68866 35.7071 5.42875 35.7071 5.14432C35.7071 4.85989 35.6624 4.59998 35.573 4.36949V4.35968Z" fill="#3E3D40"/>
<path d="M39.8166 8.04256H38.4551V2.22645H39.8166V3.53581C40.0004 3.09446 40.2688 2.74137 40.6067 2.47656C40.9495 2.21174 41.3818 2.08914 41.9036 2.11366V3.52601H41.8241C41.5259 3.52601 41.2526 3.57504 41.0091 3.66822C40.7657 3.7614 40.552 3.90851 40.3731 4.09977C40.1942 4.29102 40.0551 4.53132 39.9607 4.82065C39.8663 5.10999 39.8166 5.44836 39.8166 5.83087V8.04746V8.04256Z" fill="#3E3D40"/>
<path d="M44.4729 6.70378C44.776 6.95878 45.1487 7.08629 45.5909 7.08629C45.9238 7.08629 46.217 7.02744 46.4605 6.90975C46.704 6.79205 46.9474 6.62041 47.186 6.38993L47.976 7.08629C47.6928 7.41485 47.3549 7.67967 46.9673 7.88073C46.5797 8.08179 46.1077 8.17987 45.5661 8.17987C45.1437 8.17987 44.7462 8.10631 44.3785 7.95919C44.0108 7.81207 43.6878 7.60611 43.4195 7.34129C43.1462 7.07648 42.9325 6.75772 42.7785 6.38993C42.6244 6.01722 42.5449 5.60529 42.5449 5.14922C42.5449 4.73239 42.6145 4.34007 42.7586 3.97227C42.8977 3.60447 43.1014 3.28572 43.3549 3.00619C43.6133 2.73157 43.9164 2.51089 44.2642 2.34906C44.612 2.18723 44.9996 2.10876 45.4269 2.10876C45.894 2.10876 46.3065 2.19213 46.6592 2.36377C47.012 2.53051 47.3052 2.76099 47.5388 3.04542C47.7723 3.32985 47.9512 3.66823 48.0704 4.04583C48.1897 4.42834 48.2493 4.83046 48.2493 5.2473C48.2493 5.30615 48.2493 5.365 48.2444 5.42384C48.2444 5.48269 48.2344 5.54644 48.2294 5.61019H43.8965C43.976 6.08588 44.1698 6.45368 44.4779 6.70868L44.4729 6.70378ZM46.9077 4.72748C46.8878 4.51661 46.8381 4.31555 46.7636 4.1292C46.6891 3.94285 46.5897 3.78102 46.4605 3.64371C46.3363 3.50639 46.1822 3.39851 46.0083 3.32004C45.8344 3.24158 45.6356 3.19744 45.412 3.19744C44.9946 3.19744 44.6518 3.33966 44.3785 3.61919C44.1052 3.90362 43.9412 4.27141 43.8816 4.72748H46.9077Z" fill="#3E3D40"/>
<path d="M50.967 8.04256H49.6055V2.22646H50.967V3.1386C51.0614 2.99638 51.1707 2.86397 51.285 2.74628C51.3993 2.62368 51.5334 2.51579 51.6875 2.41771C51.8415 2.31963 52.0055 2.24608 52.1893 2.19213C52.3732 2.13819 52.5769 2.10876 52.8055 2.10876C53.4713 2.10876 53.9881 2.30983 54.3509 2.71686C54.7136 3.11898 54.8974 3.66332 54.8974 4.34497V8.04746H53.5359V4.752C53.5359 4.29593 53.4266 3.94775 53.208 3.70255C52.9894 3.45735 52.6813 3.33476 52.2838 3.33476C51.8862 3.33476 51.5732 3.46226 51.3297 3.71236C51.0862 3.96737 50.967 4.32045 50.967 4.77162V8.04746V8.04256Z" fill="#3E3D40"/>
<path d="M58.137 6.70378C58.4401 6.95878 58.8127 7.08629 59.255 7.08629C59.5879 7.08629 59.8811 7.02744 60.1246 6.90975C60.368 6.79205 60.6115 6.62041 60.85 6.38993L61.6401 7.08629C61.3569 7.41485 61.019 7.67967 60.6314 7.88073C60.2438 8.08179 59.7718 8.17987 59.2301 8.17987C58.8078 8.17987 58.4102 8.10631 58.0425 7.95919C57.6748 7.81207 57.3519 7.60611 57.0835 7.34129C56.8102 7.07648 56.5966 6.75772 56.4425 6.38993C56.2885 6.01722 56.209 5.60529 56.209 5.14922C56.209 4.73239 56.2786 4.34007 56.4227 3.97227C56.5618 3.60447 56.7655 3.28572 57.0189 3.00619C57.2773 2.73157 57.5804 2.51089 57.9283 2.34906C58.2761 2.18723 58.6637 2.10876 59.091 2.10876C59.5581 2.10876 59.9705 2.19213 60.3233 2.36377C60.6761 2.53051 60.9693 2.76099 61.2028 3.04542C61.4364 3.32985 61.6152 3.66823 61.7345 4.04583C61.8538 4.42834 61.9134 4.83046 61.9134 5.2473C61.9134 5.30615 61.9134 5.365 61.9084 5.42384C61.9084 5.48269 61.8985 5.54644 61.8935 5.61019H57.5605C57.6401 6.08588 57.8338 6.45368 58.1419 6.70868L58.137 6.70378ZM60.5718 4.72748C60.5519 4.51661 60.5022 4.31555 60.4277 4.1292C60.3531 3.94285 60.2537 3.78102 60.1246 3.64371C60.0003 3.50639 59.8463 3.39851 59.6724 3.32004C59.4985 3.24158 59.2997 3.19744 59.0761 3.19744C58.6587 3.19744 58.3158 3.33966 58.0425 3.61919C57.7692 3.90362 57.6053 4.27141 57.5456 4.72748H60.5718Z" fill="#3E3D40"/>
<path d="M67.1316 2.22644H68.4931V8.04254H67.1316V7.1304C66.9379 7.40993 66.6993 7.65513 66.4062 7.85619C66.118 8.06216 65.7453 8.16024 65.2931 8.16024C64.6273 8.16024 64.1105 7.95917 63.7478 7.55215C63.385 7.15002 63.2012 6.60568 63.2012 5.92403V2.22644H64.5627V5.5219C64.5627 5.97797 64.672 6.32615 64.8906 6.57135C65.1093 6.81655 65.4173 6.93915 65.8149 6.93915C66.2124 6.93915 66.5205 6.81165 66.7639 6.56154C67.0074 6.30654 67.1316 5.95345 67.1316 5.50229V2.22644Z" fill="#3E3D40"/>
<path d="M71.5539 8.04256H70.1924V2.22645H71.5539V3.53581C71.7377 3.09446 72.0061 2.74137 72.344 2.47656C72.6868 2.21174 73.1191 2.08914 73.6409 2.11366V3.52601H73.5614C73.2632 3.52601 72.9899 3.57504 72.7464 3.66822C72.503 3.7614 72.2893 3.90851 72.1104 4.09977C71.9315 4.29102 71.7924 4.53132 71.698 4.82065C71.6036 5.10999 71.5539 5.44836 71.5539 5.83087V8.04746V8.04256Z" fill="#3E3D40"/>
<path d="M74.8232 1.33385V0.0637207H76.2841V1.33385H74.8232ZM74.8779 8.04247V2.22637H76.2394V8.04247H74.8779Z" fill="#3E3D40"/>
<path d="M81.6008 8.04248V7.3265C81.402 7.56189 81.1437 7.75805 80.8306 7.91988C80.5176 8.08171 80.1399 8.16017 79.6927 8.16017C79.4095 8.16017 79.1411 8.12094 78.8877 8.04248C78.6343 7.96401 78.4157 7.85122 78.2219 7.6992C78.0331 7.54718 77.879 7.36083 77.7647 7.13524C77.6505 6.90966 77.5908 6.65465 77.5908 6.36042V6.3408C77.5908 6.02695 77.6504 5.74742 77.7697 5.51693C77.889 5.28154 78.0529 5.08539 78.2666 4.93336C78.4803 4.78134 78.7337 4.66365 79.0269 4.58518C79.32 4.50672 79.6381 4.46749 79.9809 4.46749C80.3238 4.46749 80.6418 4.4871 80.8902 4.53124C81.1387 4.57537 81.3772 4.63422 81.6107 4.70778V4.56557C81.6107 4.16344 81.4865 3.85449 81.2381 3.63872C80.9896 3.42785 80.6319 3.31996 80.1598 3.31996C79.8269 3.31996 79.5287 3.35429 79.2654 3.41804C79.007 3.48179 78.7387 3.57006 78.4753 3.68285L78.1076 2.61379C78.4356 2.46667 78.7685 2.34897 79.1113 2.2607C79.4542 2.17243 79.8666 2.1283 80.3486 2.1283C81.2281 2.1283 81.8791 2.34407 82.3014 2.77072C82.7238 3.20226 82.9375 3.80545 82.9375 4.58518V8.03267H81.5958L81.6008 8.04248ZM81.6356 5.57578C81.4666 5.51203 81.2629 5.45318 81.0294 5.40905C80.7958 5.36491 80.5474 5.3453 80.289 5.3453C79.8666 5.3453 79.5337 5.42866 79.2952 5.58559C79.0567 5.74742 78.9374 5.97791 78.9374 6.28195V6.30647C78.9374 6.586 79.0467 6.79687 79.2654 6.94399C79.484 7.09111 79.7523 7.16467 80.0753 7.16467C80.2989 7.16467 80.5027 7.13524 80.6964 7.0764C80.8853 7.01755 81.0542 6.93418 81.1933 6.82629C81.3325 6.71841 81.4468 6.5909 81.5213 6.43888C81.6008 6.28686 81.6406 6.12012 81.6406 5.93868V5.57578H81.6356Z" fill="#3E3D40"/>
<path d="M84.6221 8.0425V0H85.9836V8.0425H84.6221Z" fill="#3E3D40"/>
<path d="M17.0342 22.4357H20.8454V35.7058H17.0342V22.4357Z" fill="#FF7733"/>
<path d="M24.4375 22.4356H28.2487V24.3188C29.1282 23.2056 30.281 22.1904 32.214 22.1904C33.968 22.1904 35.2997 22.9554 36.0003 24.2942C37.178 22.9309 38.5842 22.1904 40.4178 22.1904C43.2501 22.1904 44.9595 23.8725 44.9595 27.0699V35.7107H41.1482V28.3106C41.1482 26.5304 40.3433 25.6134 38.9172 25.6134C37.491 25.6134 36.6115 26.5304 36.6115 28.3106V35.7107H32.8003V28.3106C32.8003 26.5304 31.9953 25.6134 30.5692 25.6134C29.1431 25.6134 28.2636 26.5304 28.2636 28.3106V35.7107H24.4524V22.4405L24.4375 22.4356Z" fill="#FF7733"/>
<path d="M48.1699 31.0225V22.4308H51.9811V29.8309C51.9811 31.611 52.8358 32.528 54.2917 32.528C55.7476 32.528 56.6768 31.611 56.6768 29.8309V22.4308H60.4881V35.7009H56.6768V33.8178C55.7973 34.931 54.6694 35.9461 52.7364 35.9461C49.8494 35.9461 48.1699 34.063 48.1699 31.0176V31.0225Z" fill="#FF7733"/>
<path d="M64.0752 17.6298H67.8864V35.7009H64.0752V17.6298Z" fill="#FF7733"/>
<path d="M70.6739 31.8904V31.8414C70.6739 28.9432 72.905 27.6093 76.0901 27.6093C77.4467 27.6093 78.4255 27.83 79.3746 28.1536V27.9329C79.3746 26.3735 78.3957 25.5055 76.4876 25.5055C75.0317 25.5055 74.0031 25.7801 72.7758 26.2215L71.8217 23.3477C73.3025 22.7053 74.7584 22.2836 77.0392 22.2836C79.1212 22.2836 80.6268 22.8279 81.5809 23.7695C82.5846 24.7601 83.0368 26.2215 83.0368 28.0016V35.7008H79.3498V34.264C78.4206 35.2791 77.1435 35.946 75.2851 35.946C72.751 35.946 70.6689 34.5092 70.6689 31.8855L70.6739 31.8904ZM79.4293 31.0224V30.3555C78.7783 30.0564 77.9237 29.8602 76.9945 29.8602C75.3646 29.8602 74.3609 30.5026 74.3609 31.6943V31.7433C74.3609 32.7584 75.2156 33.3518 76.4429 33.3518C78.2218 33.3518 79.4293 32.3857 79.4293 31.0224Z" fill="#FF7733"/>
<path d="M86.8335 31.9395V25.6527H85.2285V22.4357H86.8335V19.0421H90.6447V22.4357H93.805V25.6527H90.6447V31.3216C90.6447 32.1896 91.0224 32.6114 91.8721 32.6114C92.5727 32.6114 93.1988 32.4397 93.7553 32.1406V35.1614C92.9503 35.6322 92.0261 35.9314 90.7441 35.9314C88.4087 35.9314 86.8285 35.0143 86.8285 31.9444L86.8335 31.9395Z" fill="#FF7733"/>
<path d="M95.5889 29.1443V29.0952C95.5889 25.2849 98.6995 22.1855 102.888 22.1855C107.077 22.1855 110.138 25.2309 110.138 29.0413V29.0903C110.138 32.9007 107.028 36 102.839 36C98.6498 36 95.5889 32.9547 95.5889 29.1443ZM106.377 29.1443V29.0952C106.377 27.1386 104.945 25.432 102.839 25.432C100.732 25.432 99.3504 27.0895 99.3504 29.0462V29.0952C99.3504 31.0519 100.781 32.7585 102.888 32.7585C104.995 32.7585 106.377 31.101 106.377 29.1443Z" fill="#FF7733"/>
<path d="M112.9 22.4357H116.712V25.1083C117.487 23.2743 118.744 22.0875 121 22.1856V26.1235H120.801C118.267 26.1235 116.712 27.6339 116.712 30.8018V35.7058H112.9V22.4357Z" fill="#FF7733"/>
<path d="M16.9346 17.6298H20.9495V20.9743H16.9346V17.6298Z" fill="#FF7733"/>
<path d="M8.30273 18.027V20.376H10.8667V22.9015H13.4258V20.376V20.0523V18.027H8.30273Z" fill="#FF7733"/>
<path d="M8.32804 25.3288C5.45596 24.603 4.6311 24.2303 4.54663 23.2299C4.54663 23.2299 4.54166 23.171 4.54166 23.073C4.54166 23.0631 4.54166 23.0582 4.54166 23.0533V23.0043C4.54166 23.0043 4.54166 22.9847 4.54166 22.9798C4.54166 22.9111 4.55657 22.8327 4.57148 22.7444C4.57148 22.7199 4.57644 22.7003 4.58638 22.6757C4.70564 22.0676 5.16279 21.1114 6.78765 20.6798L6.75286 18.1298C3.21494 18.1641 0.700628 20.2336 0.700628 23.3525V23.4015C0.700628 26.8441 2.9814 27.8102 6.51932 28.6978C9.456 29.4383 10.0572 29.9336 10.0572 30.8997V30.9487C10.0572 31.9638 9.1032 32.5817 7.52306 32.5817C5.51558 32.5817 3.86091 31.7628 2.28077 30.4779L0 33.1751C2.10685 35.0337 4.79011 35.9459 7.44852 35.9459C11.2349 35.9459 13.8933 34.0137 13.8933 30.576V30.527C13.8933 27.5061 11.8858 26.2458 8.32307 25.3288H8.32804Z" fill="#FF7733"/>
</g>
<defs>
<clipPath id="clip0_112_5776">
<rect width="121" height="36" fill="white"/>
</clipPath>
</defs>
</svg>
