<svg width="32" height="32" viewBox="0 0 32 32" fill="none" xmlns="http://www.w3.org/2000/svg">
<path d="M26.5149 9.75478C26.5149 9.65577 26.5149 9.64339 26.3883 9.64339C26.1145 9.66842 25.839 9.66842 25.5653 9.64339C24.565 9.49488 21.349 7.83652 20.8045 5.13858C20.7354 4.80365 20.6889 4.46465 20.6652 4.12376C20.6652 4 20.6652 4 20.5386 4H16.6642C16.4109 4 16.4489 4 16.4489 4.21039V20.299C16.4623 20.4968 16.4623 20.6953 16.4489 20.8931C16.3701 21.355 16.1969 21.7966 15.9397 22.1918C15.6826 22.5869 15.3467 22.9274 14.9521 23.193C14.5575 23.4586 14.1122 23.6439 13.6429 23.7378C13.1735 23.8316 12.6896 23.8322 12.2199 23.7395C11.9337 23.6731 11.654 23.582 11.3843 23.4672V23.4054C11.2924 23.3324 11.195 23.2662 11.093 23.2073C10.5461 22.8559 10.1112 22.3613 9.83777 21.78C9.56437 21.1987 9.46349 20.554 9.54662 19.9194C9.62976 19.2848 9.89357 18.6858 10.308 18.1906C10.7224 17.6954 11.2708 17.3239 11.8907 17.1184C12.2966 16.9781 12.7272 16.9192 13.1569 16.9452C13.4352 16.9551 13.7114 16.9966 13.9799 17.0689C14.0685 17.0689 14.1192 17.0689 14.1192 16.9575C14.1264 16.9249 14.1264 16.8911 14.1192 16.8585C14.1192 15.9056 14.1192 13.8017 14.1192 13.8017C14.1192 13.517 14.1192 13.2448 14.1192 12.9725C14.1192 12.7002 14.1192 12.8735 14.0052 12.8735C12.7965 12.7293 11.5701 12.8607 10.422 13.2571C9.01147 13.7576 7.78098 14.6494 6.88136 15.8233C5.98175 16.9971 5.4521 18.4021 5.35734 19.8659C5.32555 20.2571 5.32555 20.6503 5.35734 21.0416C5.40342 21.5844 5.5139 22.1201 5.68654 22.638C6.14517 24.1113 7.0611 25.4088 8.3075 26.3508C8.42443 26.4593 8.5566 26.551 8.70001 26.6231L8.88993 26.7963C9.09472 26.9403 9.31062 27.0686 9.53567 27.18C11.0992 27.9511 12.8821 28.1873 14.5991 27.8507C16.3162 27.5141 17.8681 26.6243 19.0066 25.3236C20.2258 23.9517 20.888 22.1904 20.8678 20.3733C20.8678 17.7125 20.8678 15.0516 20.8678 12.3908C20.8678 12.329 20.8678 12.2299 20.8678 12.2052C20.8678 12.1804 20.9818 12.2052 21.0324 12.2795C22.0328 12.9361 23.149 13.4061 24.3244 13.6655C25.0083 13.8289 25.7096 13.9119 26.4136 13.9131C26.6415 13.9131 26.6668 13.9131 26.6668 13.6903C26.5655 12.6384 26.5022 10.0642 26.5149 9.75478Z" fill="#00A8FF"/>
</svg>
