<svg width="25" height="24" viewBox="0 0 25 24" fill="none" xmlns="http://www.w3.org/2000/svg">
<mask id="mask0_517_11300" style="mask-type:alpha" maskUnits="userSpaceOnUse" x="0" y="0" width="25" height="24">
<rect x="0.5" width="24" height="24" fill="#D9D9D9"/>
</mask>
<g mask="url(#mask0_517_11300)">
<path d="M6.5 11.9998H18.5V9.99976H6.5V11.9998ZM6.5 15.9998H14.5V13.9998H6.5V15.9998ZM4.5 19.9998C3.95 19.9998 3.47933 19.8041 3.088 19.4128C2.696 19.0208 2.5 18.5498 2.5 17.9998V5.99976C2.5 5.44976 2.696 4.97909 3.088 4.58776C3.47933 4.19576 3.95 3.99976 4.5 3.99976H10.5L12.5 5.99976H20.5C21.05 5.99976 21.521 6.19576 21.913 6.58776C22.3043 6.97909 22.5 7.44976 22.5 7.99976V17.9998C22.5 18.5498 22.3043 19.0208 21.913 19.4128C21.521 19.8041 21.05 19.9998 20.5 19.9998H4.5ZM4.5 5.99976V17.9998H20.5V7.99976H11.675L9.675 5.99976H4.5Z" fill="#00A8FF"/>
</g>
</svg>
