<svg width="32" height="32" viewBox="0 0 32 32" fill="none" xmlns="http://www.w3.org/2000/svg">
<mask id="mask0_278_4929" style="mask-type:alpha" maskUnits="userSpaceOnUse" x="0" y="0" width="32" height="32">
<rect width="32" height="32" rx="7" fill="#D9D9D9"/>
</mask>
<g mask="url(#mask0_278_4929)">
<path d="M6.958 23.3701C6.24482 23.3701 5.66667 23.9482 5.66667 24.6614C5.66667 25.3746 6.24482 25.9527 6.958 25.9527H25.7087C26.4218 25.9527 27 25.3746 27 24.6614C27 23.9482 26.4218 23.3701 25.7087 23.3701H6.958ZM5.66667 9.16535H7.94558C8.2369 9.16535 8.42783 8.83977 8.38267 8.55196C8.34978 8.33674 8.33333 8.11076 8.33333 7.87401C8.33333 6.7979 8.72222 5.8832 9.5 5.12992C10.2778 4.37664 11.2222 4 12.3333 4C13 4 13.6164 4.16658 14.1827 4.49975C14.7498 4.83377 15.2444 5.24829 15.6667 5.7433C16.0075 6.17245 16.6591 6.17245 17 5.7433C17.4 5.22677 17.8889 4.80709 18.4667 4.48425C19.0444 4.16142 19.6667 4 20.3333 4C21.4444 4 22.3889 4.37664 23.1667 5.12992C23.9444 5.8832 24.3333 6.7979 24.3333 7.87401C24.3333 8.11076 24.3164 8.33674 24.2827 8.55196C24.2387 8.83979 24.4296 9.16535 24.7207 9.16535H27C27.7333 9.16535 28.3613 9.41845 28.884 9.92465C29.4058 10.43 29.6667 11.0378 29.6667 11.748V25.9527C29.6667 26.663 29.4058 27.2712 28.884 27.7774C28.3613 28.2827 27.7333 28.5354 27 28.5354H5.66667C4.93333 28.5354 4.30578 28.2827 3.784 27.7774C3.26133 27.2712 3 26.663 3 25.9527V11.748C3 11.0378 3.26133 10.43 3.784 9.92465C4.30578 9.41845 4.93333 9.16535 5.66667 9.16535ZM5.66667 15.622C5.66667 17.7616 7.40112 19.496 9.54068 19.496H23.126C25.2655 19.496 27 17.7616 27 15.622V14.0017C27 12.757 25.991 11.748 24.7463 11.748H23.2481C21.9982 11.748 21.2888 13.1791 22.0456 14.1739L22.1792 14.3495C22.6268 14.9378 22.4941 15.7805 21.8875 16.2028C21.3166 16.6002 20.5341 16.4776 20.1121 15.9246L18.953 14.4059C17.6341 12.6777 15.0326 12.6777 13.7136 14.4059L12.5591 15.9187C12.1346 16.4749 11.3473 16.5983 10.773 16.1985C10.1676 15.777 10.0306 14.9384 10.4704 14.3461L10.6001 14.1715C11.3441 13.1697 10.6291 11.748 9.38127 11.748H7.91988C6.67546 11.748 5.66667 12.7568 5.66667 14.0012V15.622ZM12.3333 9.16535C12.7111 9.16535 13.028 9.04181 13.284 8.79473C13.5391 8.5468 13.6667 8.23989 13.6667 7.87401C13.6667 7.50813 13.5391 7.20123 13.284 6.95329C13.028 6.70621 12.7111 6.58267 12.3333 6.58267C11.9556 6.58267 11.6391 6.70621 11.384 6.95329C11.128 7.20123 11 7.50813 11 7.87401C11 8.23989 11.128 8.5468 11.384 8.79473C11.6391 9.04181 11.9556 9.16535 12.3333 9.16535ZM20.3333 9.16535C20.7111 9.16535 21.028 9.04181 21.284 8.79473C21.5391 8.5468 21.6667 8.23989 21.6667 7.87401C21.6667 7.50813 21.5391 7.20123 21.284 6.95329C21.028 6.70621 20.7111 6.58267 20.3333 6.58267C19.9556 6.58267 19.6391 6.70621 19.384 6.95329C19.128 7.20123 19 7.50813 19 7.87401C19 8.23989 19.128 8.5468 19.384 8.79473C19.6391 9.04181 19.9556 9.16535 20.3333 9.16535Z" fill="#33A4FE"/>
</g>
</svg>
