<svg width="15" height="8" viewBox="0 0 15 8" fill="none" xmlns="http://www.w3.org/2000/svg">
<path d="M6.83301 7.27539H4.16634C3.24412 7.27539 2.45812 6.95311 1.80834 6.30853C1.15812 5.6644 0.833008 4.88522 0.833008 3.97101C0.833008 3.0568 1.15812 2.2774 1.80834 1.63283C2.45812 0.988693 3.24412 0.666626 4.16634 0.666626H6.83301V1.98838H4.16634C3.61079 1.98838 3.13856 2.18114 2.74967 2.56665C2.36079 2.95216 2.16634 3.42028 2.16634 3.97101C2.16634 4.52174 2.36079 4.98986 2.74967 5.37537C3.13856 5.76088 3.61079 5.95364 4.16634 5.95364H6.83301V7.27539ZM4.83301 4.63189V3.31013H10.1663V4.63189H4.83301ZM8.16634 7.27539V5.95364H10.833C11.3886 5.95364 11.8608 5.76088 12.2497 5.37537C12.6386 4.98986 12.833 4.52174 12.833 3.97101C12.833 3.42028 12.6386 2.95216 12.2497 2.56665C11.8608 2.18114 11.3886 1.98838 10.833 1.98838H8.16634V0.666626H10.833C11.7552 0.666626 12.5415 0.988693 13.1917 1.63283C13.8415 2.2774 14.1663 3.0568 14.1663 3.97101C14.1663 4.88522 13.8415 5.6644 13.1917 6.30853C12.5415 6.95311 11.7552 7.27539 10.833 7.27539H8.16634Z" fill="#00A8FF"/>
</svg>
