<svg width="16" height="16" viewBox="0 0 16 16" fill="none" xmlns="http://www.w3.org/2000/svg">
<mask id="mask0_333_5179" style="mask-type:alpha" maskUnits="userSpaceOnUse" x="0" y="0" width="16" height="16">
<rect width="16" height="16" fill="#D9D9D9"/>
</mask>
<g mask="url(#mask0_333_5179)">
<path d="M0.666992 13.3333V11.4666C0.666992 11.0888 0.764325 10.7415 0.958992 10.4246C1.15321 10.1082 1.41144 9.86663 1.73366 9.69996C2.42255 9.35552 3.12255 9.09707 3.83366 8.92463C4.54477 8.75263 5.26699 8.66663 6.00033 8.66663C6.73366 8.66663 7.45588 8.75263 8.16699 8.92463C8.8781 9.09707 9.5781 9.35552 10.267 9.69996C10.5892 9.86663 10.8474 10.1082 11.0417 10.4246C11.2363 10.7415 11.3337 11.0888 11.3337 11.4666V13.3333H0.666992ZM12.667 13.3333V11.3333C12.667 10.8444 12.531 10.3748 12.259 9.92463C11.9865 9.47485 11.6003 9.08885 11.1003 8.76663C11.667 8.83329 12.2003 8.94707 12.7003 9.10796C13.2003 9.26929 13.667 9.46663 14.1003 9.69996C14.5003 9.92218 14.8059 10.1693 15.017 10.4413C15.2281 10.7137 15.3337 11.0111 15.3337 11.3333V13.3333H12.667ZM6.00033 7.99996C5.26699 7.99996 4.63921 7.73885 4.11699 7.21663C3.59477 6.6944 3.33366 6.06663 3.33366 5.33329C3.33366 4.59996 3.59477 3.97218 4.11699 3.44996C4.63921 2.92774 5.26699 2.66663 6.00033 2.66663C6.73366 2.66663 7.36144 2.92774 7.88366 3.44996C8.40588 3.97218 8.66699 4.59996 8.66699 5.33329C8.66699 6.06663 8.40588 6.6944 7.88366 7.21663C7.36144 7.73885 6.73366 7.99996 6.00033 7.99996ZM12.667 5.33329C12.667 6.06663 12.4059 6.6944 11.8837 7.21663C11.3614 7.73885 10.7337 7.99996 10.0003 7.99996C9.8781 7.99996 9.72255 7.98618 9.53366 7.95863C9.34477 7.93063 9.18921 7.89996 9.06699 7.86663C9.36699 7.51107 9.59744 7.11663 9.75833 6.68329C9.91966 6.24996 10.0003 5.79996 10.0003 5.33329C10.0003 4.86663 9.91966 4.41663 9.75833 3.98329C9.59744 3.54996 9.36699 3.15551 9.06699 2.79996C9.22255 2.7444 9.3781 2.70818 9.53366 2.69129C9.68921 2.67485 9.84477 2.66663 10.0003 2.66663C10.7337 2.66663 11.3614 2.92774 11.8837 3.44996C12.4059 3.97218 12.667 4.59996 12.667 5.33329ZM2.00033 12H10.0003V11.4666C10.0003 11.3444 9.96988 11.2333 9.90899 11.1333C9.84766 11.0333 9.76699 10.9555 9.66699 10.9C9.06699 10.6 8.46144 10.3748 7.85033 10.2246C7.23921 10.0748 6.62255 9.99996 6.00033 9.99996C5.3781 9.99996 4.76144 10.0748 4.15033 10.2246C3.53921 10.3748 2.93366 10.6 2.33366 10.9C2.23366 10.9555 2.15321 11.0333 2.09233 11.1333C2.03099 11.2333 2.00033 11.3444 2.00033 11.4666V12ZM6.00033 6.66663C6.36699 6.66663 6.68099 6.53596 6.94233 6.27463C7.20321 6.01374 7.33366 5.69996 7.33366 5.33329C7.33366 4.96663 7.20321 4.65285 6.94233 4.39196C6.68099 4.13063 6.36699 3.99996 6.00033 3.99996C5.63366 3.99996 5.31988 4.13063 5.05899 4.39196C4.79766 4.65285 4.66699 4.96663 4.66699 5.33329C4.66699 5.69996 4.79766 6.01374 5.05899 6.27463C5.31988 6.53596 5.63366 6.66663 6.00033 6.66663Z" fill="#00A8FF"/>
</g>
</svg>
