<svg width="16" height="16" viewBox="0 0 16 16" fill="none" xmlns="http://www.w3.org/2000/svg">
<mask id="mask0_333_5029" style="mask-type:alpha" maskUnits="userSpaceOnUse" x="0" y="0" width="16" height="16">
<rect width="16" height="16" fill="#D9D9D9"/>
</mask>
<g mask="url(#mask0_333_5029)">
<path d="M8.00033 11.2639C8.83366 11.2639 9.5421 10.9749 10.1257 10.3968C10.7088 9.81834 11.0003 9.11605 11.0003 8.28995C11.0003 7.46385 10.7088 6.76156 10.1257 6.18307C9.5421 5.60503 8.83366 5.316 8.00033 5.316C7.16699 5.316 6.45855 5.60503 5.87499 6.18307C5.29188 6.76156 5.00033 7.46385 5.00033 8.28995C5.00033 9.11605 5.29188 9.81834 5.87499 10.3968C6.45855 10.9749 7.16699 11.2639 8.00033 11.2639ZM8.00033 10.0743C7.50033 10.0743 7.07544 9.90073 6.72566 9.55355C6.37544 9.20681 6.20033 8.78561 6.20033 8.28995C6.20033 7.79429 6.37544 7.37287 6.72566 7.02569C7.07544 6.67895 7.50033 6.50558 8.00033 6.50558C8.50033 6.50558 8.92544 6.67895 9.27566 7.02569C9.62544 7.37287 9.80033 7.79429 9.80033 8.28995C9.80033 8.78561 9.62544 9.20681 9.27566 9.55355C8.92544 9.90073 8.50033 10.0743 8.00033 10.0743ZM8.00033 13.2465C6.3781 13.2465 4.90033 12.7976 3.56699 11.8997C2.23366 11.0022 1.26699 9.79895 0.666992 8.28995C1.26699 6.78095 2.23366 5.57749 3.56699 4.67958C4.90033 3.78211 6.3781 3.33337 8.00033 3.33337C9.62255 3.33337 11.1003 3.78211 12.4337 4.67958C13.767 5.57749 14.7337 6.78095 15.3337 8.28995C14.7337 9.79895 13.767 11.0022 12.4337 11.8997C11.1003 12.7976 9.62255 13.2465 8.00033 13.2465ZM8.00033 11.9248C9.25588 11.9248 10.4088 11.597 11.459 10.9414C12.5088 10.2862 13.3114 9.40243 13.867 8.28995C13.3114 7.17747 12.5088 6.29344 11.459 5.63785C10.4088 4.9827 9.25588 4.65513 8.00033 4.65513C6.74477 4.65513 5.59188 4.9827 4.54166 5.63785C3.49188 6.29344 2.68921 7.17747 2.13366 8.28995C2.68921 9.40243 3.49188 10.2862 4.54166 10.9414C5.59188 11.597 6.74477 11.9248 8.00033 11.9248Z" fill="#00A8FF"/>
</g>
</svg>
